<?xml version="1.0" encoding="UTF-8" standalone="no"?>
<svg
   xmlns:dc="http://purl.org/dc/elements/1.1/"
   xmlns:cc="http://creativecommons.org/ns#"
   xmlns:rdf="http://www.w3.org/1999/02/22-rdf-syntax-ns#"
   xmlns:svg="http://www.w3.org/2000/svg"
   xmlns="http://www.w3.org/2000/svg"
   viewBox="0 0 863.1333 628.47998"
   height="628.47998"
   width="863.1333"
   xml:space="preserve"
   id="svg2"
   version="1.1"><metadata
     id="metadata8"><rdf:RDF><cc:Work
         rdf:about=""><dc:format>image/svg+xml</dc:format><dc:type
           rdf:resource="http://purl.org/dc/dcmitype/StillImage" /></cc:Work></rdf:RDF></metadata><defs
     id="defs6" /><g
     transform="matrix(1.3333333,0,0,-1.3333333,0,628.48)"
     id="g10"><g
       transform="scale(0.1)"
       id="g12"><path
         id="path14"
         style="fill:#295a36;fill-opacity:1;fill-rule:nonzero;stroke:none"
         d="m 5604.07,1760.91 c 91.5,96.54 264.46,319.32 264.46,319.32 133.8,57.19 270.44,136.53 346.73,204.18 -76.08,-106.88 -140.47,-209.93 -194.46,-236.16 146.15,66.72 277.68,149.5 320.66,199.62 -166.33,-444.5 -498.43,-506.92 -737.39,-486.96 z m 214.13,-359.17 c -17.12,24.71 -112.03,95.47 -169.23,127.46 104.06,24.98 299.31,115.83 409.74,173.53 -23.18,-73.24 -121.81,-222.05 -240.51,-300.99 z m -1907.17,803.39 c 23.17,159.24 58.23,357.07 61.54,380.53 -99.98,-14.38 -332.62,-80.48 -541.98,-334.59 -7.97,42.42 -1.76,142.32 1.66,188.27 194.46,167.79 371.66,234.07 398.04,247.31 63.92,32.24 273.19,7.52 359.15,-4.19 l 111.87,-225.38 c -120.97,-55.47 -316.58,-197.98 -390.28,-251.95 z m 335.1,-278.06 c -558.29,75.9 -929.95,-44.61 -1263.19,-163.75 84.72,250.88 212.78,437.98 344.05,575.71 -1.55,-68.13 5.22,-245.76 37.55,-347.89 147.35,169.12 342.86,362.22 490.57,439.92 -11.53,-74.03 -12.57,-268.25 6.67,-351.91 164.74,110.4 402.97,248.52 402.97,248.52 -11.02,-100.24 -19.4,-328.66 -18.62,-400.6 z m 97.54,86.52 c -0.1,59.72 20.49,228.49 37.19,311.6 43.66,-66.59 91.24,-130.33 140.32,-188.1 -47.17,-36.55 -156.41,-107.56 -177.51,-123.5 z m 499.42,223.8 c -17.42,-141.22 -58.18,-303.42 -100.07,-418.91 -91.14,26.73 -177.87,48.72 -261.04,66.59 29.07,24.51 296.57,257.06 361.11,352.32 z M 5540.56,1071.54 C 5365.64,493.742 4787.03,443.492 4787.03,443.492 c 288.45,186.09 417.55,378.227 431.62,462.227 -174.78,-211.899 -459.03,-347.821 -587.87,-386.18 167.48,154.473 220.23,254.422 228.97,304.832 -131.37,-133.242 -318.55,-215.859 -481.11,-272.242 -2.17,483.191 -187.23,715.181 -291.82,847.201 83.08,43.19 437.88,51.52 562.74,36.82 84.61,46.55 -301.18,166.13 -836.44,166.13 -597.85,0 -901.24,-216.61 -965.59,-216.61 -29.59,0 -127.34,63.52 -127.34,385.72 0,540.77 668.87,1413.96 1506.13,1413.96 278.06,0 546.49,-107.9 960.93,-254.55 0,0 -84.35,-32.53 -84.35,-92.38 0,-59.86 316.89,-274.24 497.82,-548.51 -12.57,32.52 -28.98,281.03 -33.78,348.64 212.63,-163.21 234.72,-454.17 222.3,-525.4 -12.57,-70.95 -177,-210.68 -285.56,-330.13 -305.83,33.27 -502.99,188.58 -584.04,250.05 23.49,212.98 24.05,369.65 -7.54,452.22 -42.36,-52.08 -168.99,-185.75 -273.25,-254.57 -286.95,357.83 -243.04,721.1 -236.06,834.79 -1073.83,-41.28 -1506.7,-1084.37 -1536.54,-1488.55 0,0 263.26,261.56 963.06,261.56 813.42,0 1897.39,-369.78 1897.39,-680.31 0,-125.3 -186.14,-86.67 -186.14,-86.67 z M 3983.33,3409.22 c -140.79,0 -263,-7.43 -276.6,-10.09 -84.05,104.48 -287.31,387.21 -186.25,367.9 66.72,-21.24 210.55,-80.02 359.77,-147.74 z m 327.5,-20.53 c -85.03,14.84 -201.09,20.04 -308.72,20.53 l 78.2,114.51 c 100.34,-50.5 186.1,-99.13 230.52,-135.04 z m 1087.24,-229.21 -135.51,36.72 c -35.12,34.64 -47.85,56.95 -47.85,56.95 30.58,2.54 77.74,7.52 126.72,13.08 z M 1665.65,4314.21 c 0,0 589.57,248 1488.54,248 1460.81,0 2221.07,-814.4 2221.07,-920.34 0,-87.75 -293.26,237.39 -550.31,358.21 0,0 322.79,-297.6 322.79,-473.72 0,-78.79 -81.1,-163.05 -230.11,-163.05 -122.73,0 -219.4,430.02 -270.61,430.02 -63.97,0 122.16,-381.16 44.43,-381.16 -281.32,0 -325.94,1027.08 -1689.32,1012.94 139.95,-51.65 360.13,-176.73 446.87,-275.63 -357.08,120.93 -1004.9,241.36 -1783.35,164.73 z M 2265.72,718.879 C 2084.7,869.359 1809.27,1167.12 1772.71,1681.02 1719.85,1517.56 1722.18,1246.07 1815.8,886.57 1765.01,801.121 1699.31,688.852 1672.89,604.859 1331.63,917.961 850.824,1289.13 917.445,2409.93 798.328,2165.17 715.883,1997.33 673.063,1820.36 496.535,2083.13 259.969,2510.69 230.531,3088.91 c 33.414,81.23 392.824,379.09 583.582,506.99 -177.726,92.2 -428.679,357.48 -487.328,583.64 72.774,70.34 349.789,200.5 1267.175,-73.63 -82.49,-29.82 -171.2,-38.25 -217.18,-33.8 0,0 -306.92,62.42 -520.425,62.42 -286.476,0 -217.222,-153.27 -150.343,-194.9 l 278.418,-43.95 c -39.727,-45.48 -60.989,-148.44 -34.035,-185.5 71.325,23.72 219.495,45.62 291.645,21.24 C 1162.91,3671.09 957.371,3462.55 905.602,3285.4 1214.68,3519.02 1518.45,3634.28 1987.25,3688 1616.41,3531.46 1053.06,3255.69 922.719,2627.45 1225.19,2896.66 1547.15,3104.61 2253.87,3139.83 1192.86,2586.36 1521.08,1927.79 1521.08,1927.79 c 0,0 104.07,584.24 950.07,712.54 -136.28,-199.62 -388.89,-514.89 -173.98,-1134.05 43.8,301.6 130.64,527.46 257.47,597 -43.09,-173.34 -64.35,-514.24 58.39,-824.75 -74.79,-76.39 -293.73,-328.999 -347.31,-559.651 z M 5502.23,3285.53 c 22.92,2.89 37.29,4.7 37.29,4.7 31.97,-49.39 48.89,-114.2 45,-181.18 l -166.28,45.03 z m 336.3,-264.11 c -42.06,37.18 -130.91,306.57 -140.33,351.73 -9.41,45.23 10.4,29.94 12.57,70.59 0,0 -607,1269.82 -2899.45,1269.82 -1013.37,0 -1698.73,-295.9 -1698.73,-295.9 C 275.531,4559.82 60.2148,4407.11 4.81641,4345.59 -35.8359,4068.85 186.57,3790.69 455.207,3575.4 415.902,3539.95 92.3281,3213.77 54.625,3143.71 54.3203,2243.37 436.848,1504.2 659.613,1182 c -12.261,92.76 37.289,412.37 138.352,693.45 C 868.461,918.422 1298.83,461.492 1742.3,78.082 c 0.15,185.027 65.07,430.25 154.59,559.109 94.6,-157.082 295.69,-363.269 488.3,-446.05 -105.46,459.668 228.36,1099.079 911.64,1099.079 749.96,0 1005.06,-753.208 932.02,-1290.22 649.42,174.281 1077.52,428.898 1591.01,984.32 69.87,66.12 182.73,129.94 70.49,320.41 204.92,144.72 263.83,393.91 284.57,500.79 121.39,92.59 298.59,435.71 298.59,766.23 0,145.21 -220.39,284.23 -634.98,449.67" /><path
         id="path16"
         style="fill:#295a35;fill-opacity:1;fill-rule:nonzero;stroke:none"
         d="m 5280.22,264.859 v -93.257 h -15.34 v 126.839 h 15.34 l 39.01,-82.062 39.41,82.062 h 15 V 171.602 h -15.51 v 93.257 l -31.97,-68.07 h -13.35 z m -132.62,33.582 h 94.96 v -14.5 h -39.41 V 171.602 h -16.02 v 112.339 h -39.53 v 14.5" /></g></g></svg>